<svg xmlns="http://www.w3.org/2000/svg" xmlns:xlink="http://www.w3.org/1999/xlink" width="840" zoomAndPan="magnify" viewBox="0 0 630 629.999998" height="840" preserveAspectRatio="xMidYMid meet" version="1.0"><defs><clipPath id="63ff06c33c"><path d="M 0 0 L 629.675781 0 L 629.675781 630 L 0 630 Z M 0 0 " clip-rule="nonzero"/></clipPath><clipPath id="7c94a819d7"><path d="M 38.25 0 L 591.425781 0 C 601.570312 0 611.300781 4.03125 618.472656 11.203125 C 625.648438 18.375 629.675781 28.105469 629.675781 38.25 L 629.675781 591.441406 C 629.675781 601.585938 625.648438 611.316406 618.472656 618.488281 C 611.300781 625.664062 601.570312 629.691406 591.425781 629.691406 L 38.25 629.691406 C 28.105469 629.691406 18.375 625.664062 11.203125 618.488281 C 4.03125 611.316406 0 601.585938 0 591.441406 L 0 38.25 C 0 28.105469 4.03125 18.375 11.203125 11.203125 C 18.375 4.03125 28.105469 0 38.25 0 Z M 38.25 0 " clip-rule="nonzero"/></clipPath><clipPath id="6226bf7f75"><path d="M 80 54.808594 L 587 54.808594 L 587 303 L 80 303 Z M 80 54.808594 " clip-rule="nonzero"/></clipPath><clipPath id="790664e38d"><path d="M 47 328 L 553 328 L 553 574.558594 L 47 574.558594 Z M 47 328 " clip-rule="nonzero"/></clipPath></defs><g clip-path="url(#63ff06c33c)"><g clip-path="url(#7c94a819d7)"><path fill="#ffffff" d="M 0 0 L 629.675781 0 L 629.675781 629.675781 L 0 629.675781 Z M 0 0 " fill-opacity="1" fill-rule="nonzero"/></g></g><g clip-path="url(#6226bf7f75)"><path fill="#000000" d="M 450.304688 163.453125 C 403.957031 116.585938 347.597656 98.085938 283.640625 108.921875 C 204.070312 122.382812 153.71875 170.90625 130.859375 247.9375 C 125.261719 266.917969 114.902344 276.097656 100.121094 273.269531 C 84.445312 270.230469 77.675781 256.910156 81.542969 236.894531 C 103.160156 125.558594 226.3125 40.863281 342.417969 56.742188 C 402.367188 64.953125 452.71875 90.632812 493.746094 135.011719 C 496.992188 138.535156 503.140625 140.949219 508.113281 141.226562 C 548.589844 143.847656 579.945312 170.90625 585.953125 209.214844 C 591.964844 247.382812 571.449219 282.519531 534.707031 297.082031 C 503.277344 309.507812 465.222656 299.289062 444.292969 272.785156 C 421.707031 244.210938 420.121094 206.246094 440.289062 176.429688 C 443.1875 172.148438 446.503906 168.214844 450.234375 163.382812 Z M 507.421875 251.179688 C 524.207031 250.765625 536.847656 237.652344 536.292969 221.292969 C 535.671875 204.519531 522.894531 192.511719 505.972656 192.925781 C 489.050781 193.339844 476.550781 206.246094 477.171875 222.742188 C 477.792969 239.652344 490.570312 251.664062 507.421875 251.179688 Z M 507.421875 251.179688 " fill-opacity="1" fill-rule="nonzero"/></g><g clip-path="url(#790664e38d)"><path fill="#000000" d="M 184.800781 466.257812 C 271.964844 563.101562 439.941406 532.730469 492.503906 411.9375 C 496.371094 403.035156 499.34375 393.644531 502.796875 384.535156 C 509.148438 367.761719 520.269531 360.445312 533.738281 364.242188 C 548.933594 368.519531 556.394531 382.464844 551.074219 400.066406 C 531.320312 465.292969 492.226562 515.128906 431.445312 547.015625 C 336.613281 596.714844 214.570312 579.042969 139.769531 494.972656 C 136.039062 490.832031 128.164062 489.105469 122.015625 488.484375 C 75.878906 484 44.589844 447.96875 47.214844 401.652344 C 49.632812 359.546875 87.964844 325.726562 131.894531 328.140625 C 162.5625 329.800781 185.355469 345.328125 198.890625 372.664062 C 212.703125 400.546875 210.769531 428.296875 193.226562 454.457031 C 190.671875 458.253906 187.976562 461.839844 184.800781 466.328125 Z M 157.242188 407.933594 C 156.757812 391.230469 143.773438 378.945312 126.921875 379.289062 C 109.722656 379.566406 97.910156 391.851562 98.328125 409.109375 C 98.742188 426.019531 111.65625 438.71875 128.09375 438.234375 C 144.328125 437.753906 157.65625 423.878906 157.242188 407.933594 Z M 157.242188 407.933594 " fill-opacity="1" fill-rule="nonzero"/></g></svg>